Coordinates
version=1
nRows=12
nColumns=24
inDegrees=yes

Units are S.I. units (second, meters, Newtons, ...)
If the header above contains a line with 'inDegrees', this indicates whether rotational values are in degrees (yes) or radians (no).

endheader
time	pelvis_tilt	pelvis_list	pelvis_rotation	pelvis_tx	pelvis_ty	pelvis_tz	hip_flexion_r	hip_adduction_r	hip_rotation_r	knee_angle_r	ankle_angle_r	subtalar_angle_r	mtp_angle_r	hip_flexion_l	hip_adduction_l	hip_rotation_l	knee_angle_l	ankle_angle_l	subtalar_angle_l	mtp_angle_l	lumbar_extension	lumbar_bending	lumbar_rotation
      2.07000000	      2.98464850	      1.39159266	      5.94950310	      0.82445295	      0.79111686	      0.08929473	     26.75898719	     -5.11831083	     -7.31059072	    -41.35695964	      6.24326411	     -0.92414557	      0.00000000	     -0.69081582	      5.13832651	      3.55608550	    -19.18497942	     14.78418406	     -6.94455814	      0.00000000	      0.00000000	      0.00000000	      0.00000000
      2.07500000	      2.79014035	      1.62182770	      6.08395141	      0.82942232	      0.79039498	      0.08949232	     27.01294541	     -5.41827543	     -7.28651732	    -39.68584580	      6.23998693	     -0.66340307	      0.00000000	     -0.93654598	      5.30554065	      3.47959777	    -19.11581927	     14.95051946	     -6.90287075	      0.00000000	      0.00000000	      0.00000000	      0.00000000
      2.08000000	      2.56027484	      1.79845428	      6.22540860	      0.83444088	      0.78968185	      0.08965144	     27.23849830	     -5.66421391	     -7.26019787	    -37.89634438	      6.14955281	     -0.27234592	      0.00000000	     -1.17188290	      5.43026246	      3.50931715	    -19.00222401	     15.13360420	     -6.81440662	      0.00000000	      0.00000000	      0.00000000	      0.00000000
      2.08500000	      2.52438495	      1.61414954	      6.63775219	      0.83966583	      0.78934856	      0.08962184	     27.05778483	     -5.68579111	     -7.75780496	    -35.85321675	      5.92489614	      0.86410200	      0.00000000	     -1.62728877	      5.13183909	      4.03578581	    -18.89031938	     15.61467508	     -6.20529782	      0.00000000	      0.00000000	      0.00000000	      0.00000000
      2.09000000	      2.26292751	      1.71786606	      6.75333047	      0.84472128	      0.78861633	      0.08983914	     27.23181498	     -5.84127974	     -7.72911901	    -33.91103113	      5.61839283	      1.45184336	      0.00000000	     -1.82719416	      5.18212044	      4.12886251	    -18.78336046	     15.81181235	     -6.05315911	      0.00000000	      0.00000000	      0.00000000	      0.00000000
      2.09500000	      2.00658613	      1.97830557	      6.87793018	      0.84977693	      0.78777373	      0.08998732	     27.42259171	     -6.18980264	     -7.76194849	    -32.07184495	      5.52520197	      1.77769119	      0.00000000	     -2.01789272	      5.38085103	      3.99955596	    -18.69610539	     15.99532686	     -6.02706751	      0.00000000	      0.00000000	      0.00000000	      0.00000000
      2.10000000	      1.79714948	      1.85549927	      7.10260557	      0.85490980	      0.78715449	      0.09018101	     27.41126707	     -6.18001966	     -8.07709623	    -29.92881169	      4.93160093	      2.64120376	      0.00000000	     -2.25048651	      5.17747148	      4.36819892	    -18.64524888	     16.28435168	     -5.68108463	      0.00000000	      0.00000000	      0.00000000	      0.00000000
      2.10500000	      1.54365442	      1.97629648	      7.22614008	      0.86001412	      0.78638619	      0.09039251	     27.49339600	     -6.36817896	     -8.15944445	    -27.90321675	      4.57817288	      3.23414734	      0.00000000	     -2.45382515	      5.23778129	      4.48253712	    -18.56327143	     16.49068768	     -5.44280829	      0.00000000	      0.00000000	      0.00000000	      0.00000000
      2.11000000	      1.28980866	      2.08095727	      7.35916314	      0.86514250	      0.78559529	      0.09059416	     27.55180171	     -6.55233096	     -8.33471246	    -25.85793223	      4.17728545	      3.83572775	      0.00000000	     -2.64461199	      5.27343836	      4.56391150	    -18.50773552	     16.67678816	     -5.22782032	      0.00000000	      0.00000000	      0.00000000	      0.00000000
      2.11500000	      1.01741930	      2.36404359	      7.38027504	      0.87035133	      0.78463397	      0.09082710	     27.73368911	     -6.90422398	     -8.54872061	    -24.03963254	      4.09899358	      4.13082525	      0.00000000	     -2.83907556	      5.50183261	      4.37649437	    -18.43529785	     16.83922171	     -5.20012331	      0.00000000	      0.00000000	      0.00000000	      0.00000000
      2.12000000	      0.94860261	      2.19157591	      7.72397101	      0.87565504	      0.78421539	      0.09099005	     27.37120097	     -6.86313357	     -9.16053445	    -21.69581475	      3.34215555	      5.01632045	      0.00000000	     -3.16291104	      5.17025695	      4.69435450	    -18.48737135	     17.15334441	     -4.49109735	      0.00000000	      0.00000000	      0.00000000	      0.00000000
      2.12500000	      0.65433200	      2.45451960	      7.72194824	      0.88086742	      0.78325209	      0.09131985	     27.53183804	     -7.15073110	     -9.32075121	    -19.86211143	      3.18346158	      5.42377950	      0.00000000	     -3.32339862	      5.37722809	      4.56950661	    -18.43774963	     17.26839307	     -4.42155765	      0.00000000	      0.00000000	      0.00000000	      0.00000000
